<?xml version="1.0" encoding="UTF-8" standalone="no"?>
<svg width="220px" height="220px" viewBox="0 0 220 220" version="1.1" xmlns="http://www.w3.org/2000/svg" xmlns:xlink="http://www.w3.org/1999/xlink" style="background: #FFFFFF;">
    <!-- Generator: Sketch 39.1 (31720) - http://www.bohemiancoding.com/sketch -->
    <title>Logo</title>
    <desc>Created with Sketch.</desc>
    <defs>
        <ellipse id="path-1" cx="101" cy="101.676037" rx="101" ry="101.676037"></ellipse>
        <linearGradient x1="50%" y1="100.301137%" x2="50%" y2="1.88260213%" id="linearGradient-3">
            <stop stop-color="#6CC84D" offset="0%"></stop>
            <stop stop-color="#4EBBEA" stop-opacity="0.200435915" offset="100%"></stop>
        </linearGradient>
        <linearGradient x1="50%" y1="100%" x2="50%" y2="0%" id="linearGradient-4">
            <stop stop-color="#6CC84D" stop-opacity="0.2" offset="0%"></stop>
            <stop stop-color="#4DBBEA" offset="100%"></stop>
        </linearGradient>
        <rect id="path-5" x="0" y="0" width="462" height="216.43909"></rect>
        <rect id="path-6" x="0" y="0" width="208" height="154"></rect>
    </defs>
    <g id="Page-1" stroke="none" stroke-width="1" fill="none" fill-rule="evenodd">
        <g id="Logo">
            <g id="Group" transform="translate(9.000000, 8.000000)">
                <g id="Circle---Thick---Light-Green">
                    <mask id="mask-2" fill="white">
                        <use xlink:href="#path-1"></use>
                    </mask>
                    <g id="Mask"></g>
                    <g id="Exploration-5" mask="url(#mask-2)">
                        <g transform="translate(-130.000000, -9.060241)">
                            <g id="bg">
                                <use fill="#DFDFDF" xlink:href="#path-5"></use>
                                <use fill="url(#linearGradient-3)" xlink:href="#path-5"></use>
                                <use fill="url(#linearGradient-4)" xlink:href="#path-5"></use>
                            </g>
                            <g id="mountains" stroke-width="1" transform="translate(137.000000, 31.000000)">
                                <mask id="mask-7" fill="white">
                                    <use xlink:href="#path-6"></use>
                                </mask>
                                <g id="Mask"></g>
                                <g mask="url(#mask-7)" id="Triangle" stroke="#FFFFFF" stroke-width="3">
                                    <g transform="translate(-9.000000, 2.428380)">
                                        <path d="M53.8215488,35.2342704 C55.319016,35.2342704 107.643098,154.188634 107.643098,154.188634 L7.10542736e-15,154.188634 C7.10542736e-15,154.188634 52.3240816,35.2342704 53.8215488,35.2342704 Z"></path>
                                        <path d="M155.006929,63.4216867 C156.536759,63.4216867 204,153.501606 204,153.501606 C204,153.501606 106.96594,155.04742 106.013859,153.501606 C105.061777,151.955791 153.4771,63.4216867 155.006929,63.4216867 Z"></path>
                                        <path d="M102.249158,5.68434189e-14 C104.404501,3.64990539e-10 186.31659,151.268882 185.498316,153.296948 C184.680043,155.325014 19,153.296948 19,153.296948 C19,153.296948 100.093816,-3.64877422e-10 102.249158,5.68434189e-14 Z"></path>
                                    </g>
                                </g>
                            </g>
                        </g>
                    </g>
                </g>
            </g>
        </g>
    </g>
</svg>