<?xml version="1.0" encoding="UTF-8" standalone="no"?>
<svg width="80px" height="80px" viewBox="0 0 80 80" version="1.1" xmlns="http://www.w3.org/2000/svg" xmlns:xlink="http://www.w3.org/1999/xlink">
    <!-- Generator: Sketch 39.1 (31720) - http://www.bohemiancoding.com/sketch -->
    <title>Group</title>
    <desc>Created with Sketch.</desc>
    <defs>
        <path d="M12.7618266,26.2970255 C13.139054,25.4699682 15.7848328,27.1631718 15.7848328,27.1631718 L14.6964538,33.805181 L25.3336613,35.668055 L27.0919621,29.7603397 L27.8559129,29.2095472 C29.4234784,28.0793653 30.4061521,28.7040881 30.0225444,30.5993442 C30.0225444,30.5993442 28.6072853,39.0431169 27.0919616,39.0431169 C25.576638,39.0431169 13.3073931,37.8719562 11.4792413,36.3498033 C9.65108937,34.8276504 12.3845991,27.1240827 12.7618266,26.2970255 Z" id="path-1"></path>
        <mask id="mask-2" maskContentUnits="userSpaceOnUse" maskUnits="objectBoundingBox" x="0" y="0" width="19.2503893" height="12.9736719" fill="white">
            <use xlink:href="#path-1"></use>
        </mask>
    </defs>
    <g id="Services" stroke="none" stroke-width="1" fill="none" fill-rule="evenodd">
        <g id="Desktop" transform="translate(-165.000000, -399.000000)">
            <g id="Services" transform="translate(84.000000, 399.000000)">
                <g id="Consulting">
                    <g id="Group" transform="translate(81.000000, 0.000000)">
                        <path d="M40,80 C62.09139,80 80,62.09139 80,40 C80,17.90861 62.09139,0 40,0 C17.90861,0 0,17.90861 0,40 C0,62.09139 17.90861,80 40,80 Z" id="Icon" fill="#6CC84D"></path>
                        <g id="megaphone" transform="translate(5.000000, 14.000000)" stroke="#46494C">
                            <g transform="translate(30.758078, 26.029704) rotate(-14.000000) translate(-30.758078, -26.029704) translate(4.758078, 6.029704)" fill="#FFFFFF">
                                <use id="Rectangle-3" mask="url(#mask-2)" stroke-width="2" xlink:href="#path-1"></use>
                                <path d="M1.62774795,24.7091122 C1.62774795,24.7091122 38.2324219,35.0478516 45.3291016,35.0478516 C52.4257812,35.0478516 50.1025391,1.90917979 45.3291016,1.90917969 C40.5556641,1.90917958 2.20778751,8.96879578 2.20778751,8.96879578 C2.20778751,8.96879578 1,10.9248678 1,17 C1,23.0751322 1.62774795,24.7091122 1.62774795,24.7091122 Z" id="Oval-7"></path>
                                <path d="M1.5,24.9282462 C2.32842712,24.9282462 3,23.0751322 3,17 C3,10.9248678 2.32842712,8.70576547 1.5,8.70576547 C0.671572875,8.70576547 4.42756942e-13,10.9248678 4.42756942e-13,17 C4.42756942e-13,23.0751322 0.671572875,24.9282462 1.5,24.9282462 Z" id="Oval-6" transform="translate(1.500000, 16.817006) scale(-1, 1) translate(-1.500000, -16.817006) "></path>
                            </g>
                            <g id="noise" transform="translate(54.000000, 4.000000)" stroke-linecap="square">
                                <path d="M0,5 L7.5,0.5" id="Line"></path>
                                <path d="M4.5,13.5 L16.5,11.5" id="Line"></path>
                                <path d="M6,24 L12.5,24" id="Line"></path>
                            </g>
                        </g>
                    </g>
                </g>
            </g>
        </g>
    </g>
</svg>