<?xml version="1.0" encoding="UTF-8" standalone="no"?>
<svg width="80px" height="80px" viewBox="0 0 80 80" version="1.1" xmlns="http://www.w3.org/2000/svg" xmlns:xlink="http://www.w3.org/1999/xlink">
    <!-- Generator: Sketch 39.1 (31720) - http://www.bohemiancoding.com/sketch -->
    <title>Group 3</title>
    <desc>Created with Sketch.</desc>
    <defs></defs>
    <g id="Services" stroke="none" stroke-width="1" fill="none" fill-rule="evenodd">
        <g id="Desktop" transform="translate(-780.000000, -399.000000)">
            <g id="Services" transform="translate(84.000000, 399.000000)">
                <g id="Speaking" transform="translate(616.000000, 0.000000)">
                    <g id="Group-3" transform="translate(80.000000, 0.000000)">
                        <path d="M40,80 C62.09139,80 80,62.09139 80,40 C80,17.90861 62.09139,0 40,0 C17.90861,0 0,17.90861 0,40 C0,62.09139 17.90861,80 40,80 Z" id="Icon" fill="#6CC84D"></path>
                        <g id="path" transform="translate(8.000000, 23.000000)" stroke="#46494C">
                            <g id="marker" transform="translate(0.000000, 9.000000)" fill="#FFFFFF">
                                <path d="M4.5,13.0335434 C4.5,13.0335434 9,7.82022241 9,5.03787879 C9,2.25553516 6.98528137,0 4.5,0 C2.01471863,0 0,2.25553516 0,5.03787879 C0,7.82022241 4.5,13.0335434 4.5,13.0335434 Z" id="Oval-4"></path>
                                <ellipse id="Oval-3" cx="4.5" cy="4.43333333" rx="2.45454545" ry="2.41818182"></ellipse>
                                <ellipse id="Oval-5" cx="4.84615385" cy="13.65" rx="2.76923077" ry="0.35"></ellipse>
                            </g>
                            <g id="marker" transform="translate(26.000000, 0.000000)" fill="#FFFFFF">
                                <path d="M4.5,13.0335434 C4.5,13.0335434 9,7.82022241 9,5.03787879 C9,2.25553516 6.98528137,0 4.5,0 C2.01471863,0 0,2.25553516 0,5.03787879 C0,7.82022241 4.5,13.0335434 4.5,13.0335434 Z" id="Oval-4"></path>
                                <ellipse id="Oval-3" cx="4.5" cy="4.43333333" rx="2.45454545" ry="2.41818182"></ellipse>
                                <ellipse id="Oval-5" cx="4.84615385" cy="13.65" rx="2.76923077" ry="0.35"></ellipse>
                            </g>
                            <g id="marker" transform="translate(58.000000, 16.000000)" fill="#FFFFFF">
                                <path d="M4.5,13.0335434 C4.5,13.0335434 9,7.82022241 9,5.03787879 C9,2.25553516 6.98528137,0 4.5,0 C2.01471863,0 0,2.25553516 0,5.03787879 C0,7.82022241 4.5,13.0335434 4.5,13.0335434 Z" id="Oval-4"></path>
                                <ellipse id="Oval-3" cx="4.5" cy="4.43333333" rx="2.45454545" ry="2.41818182"></ellipse>
                                <ellipse id="Oval-5" cx="4.84615385" cy="13.65" rx="2.76923077" ry="0.35"></ellipse>
                            </g>
                            <path d="M11.5,20.5 L15.5,18.5" id="Line" stroke-linecap="square"></path>
                            <path d="M20.5,16.5 L24.5,14.5" id="Line" stroke-linecap="square"></path>
                            <path d="M36.5,17.5 L40.5,15.5" id="Line" stroke-linecap="square" transform="translate(38.500000, 16.500000) scale(-1, 1) translate(-38.500000, -16.500000) "></path>
                            <path d="M45.5,22.5 L49.5,20.5" id="Line" stroke-linecap="square" transform="translate(47.500000, 21.500000) scale(-1, 1) translate(-47.500000, -21.500000) "></path>
                            <path d="M53.5,26.5 L57.5,24.5" id="Line" stroke-linecap="square" transform="translate(55.500000, 25.500000) scale(-1, 1) translate(-55.500000, -25.500000) "></path>
                            <path d="M11.5,20.5 L15.5,18.5" id="Line" stroke-linecap="square"></path>
                        </g>
                    </g>
                </g>
            </g>
        </g>
    </g>
</svg>